<svg width="518" height="208" viewBox="0 0 518 208" fill="none" xmlns="http://www.w3.org/2000/svg">
<path fill-rule="evenodd" clip-rule="evenodd" d="M382.524 65.3903C385.867 65.4137 388.896 65.1782 389.253 64.8595C390.66 63.6068 389.466 62.5782 387.27 63.1519C385.992 63.4918 383.478 63.7272 381.679 63.6794C379.883 63.6311 377.971 63.9869 377.429 64.4661C376.823 65.0046 378.788 65.3589 382.524 65.3903" fill="#AF1932"/>
<path fill-rule="evenodd" clip-rule="evenodd" d="M247.138 86.0276C247.221 86.5005 248.83 86.614 250.714 86.2818C252.598 85.9496 254.075 85.292 253.992 84.8191C253.909 84.3487 252.295 84.2362 250.411 84.5684C248.527 84.9006 247.055 85.5572 247.138 86.0276" fill="#AF1932"/>
<path fill-rule="evenodd" clip-rule="evenodd" d="M334.279 80.9431C333.622 81.8825 334.804 82.9371 336.233 82.685C336.916 82.5647 337.367 81.8883 337.242 81.1802C337.014 79.888 335.125 79.7388 334.279 80.9431" fill="#AF1932"/>
<path fill-rule="evenodd" clip-rule="evenodd" d="M424.323 57.031C429.263 55.579 431.441 54.209 429.811 53.5638C429.377 53.3953 425.983 53.5061 422.271 53.8114C415.21 54.3903 414.294 55.0715 417.533 57.3437C418.919 58.3144 420.15 58.2519 424.323 57.031" fill="#AF1932"/>
<path fill-rule="evenodd" clip-rule="evenodd" d="M327.317 82.4872C327.692 82.9061 328.53 83.1579 329.182 83.0431C329.83 82.9287 330.535 82.4048 330.744 81.883C330.957 81.3416 330.156 81.1019 328.879 81.3271C327.6 81.5526 326.931 82.0516 327.317 82.4872" fill="#AF1932"/>
<path fill-rule="evenodd" clip-rule="evenodd" d="M267.61 80.5341C266.899 81.1124 265.217 81.4276 263.691 81.2676C261.587 81.0445 260.55 81.4645 258.819 83.2247C255.442 86.6501 257.471 86.9771 266.34 84.4381C270.701 83.1813 275.216 81.9883 276.369 81.7717C277.868 81.4966 278.155 81.1742 277.377 80.6292C275.686 79.4405 269.023 79.3762 267.61 80.5341" fill="#AF1932"/>
<path fill-rule="evenodd" clip-rule="evenodd" d="M362.761 65.64C362.845 66.113 363.877 66.3281 365.055 66.1203C366.231 65.9129 367.127 65.3579 367.044 64.8849C366.961 64.4146 365.929 64.1995 364.753 64.4068C363.574 64.6146 362.678 65.1697 362.761 65.64" fill="#AF1932"/>
<path fill-rule="evenodd" clip-rule="evenodd" d="M409.978 64.6448C413.402 64.321 417.747 64.1784 419.639 64.3298C426.8 64.9111 436.553 65.0646 440.53 64.6593C442.803 64.4369 445.205 64.533 445.869 64.8823C446.532 65.2264 447.792 65.6331 448.669 65.7849C449.545 65.929 450.374 66.6861 450.509 67.4537C450.691 68.4849 451.125 68.6055 452.135 67.9105C454.761 66.091 458.837 66.0545 464.998 67.7902C468.4 68.7519 471.253 69.909 471.333 70.3664C471.414 70.8239 472.056 71.097 472.764 70.9721C473.47 70.8477 473.947 70.1667 473.822 69.4586C473.536 67.8382 474.465 67.6638 476.864 68.8955C477.927 69.4382 478.285 69.9534 477.683 70.0756C477.096 70.1924 476.727 70.9129 476.861 71.6702C477.057 72.7814 476.506 73.0463 474.077 73.0217C469.594 72.9701 469.73 74.6062 474.397 76.8745C478.818 79.0209 482.258 78.7366 481.388 76.2946C480.626 74.1346 483.592 73.9661 486.975 75.973C490.439 78.0269 492.089 77.8906 491.682 75.5828C491.515 74.6395 490.995 73.9398 490.525 74.0227C490.052 74.1061 489.598 73.7864 489.514 73.3083C489.363 72.4528 489.635 72.5007 495.129 74.2022C496.25 74.548 498.351 74.9584 499.797 75.1058C501.983 75.3385 502.45 75.1016 502.567 73.6901C502.683 72.2333 503.026 72.0795 504.988 72.5836C506.812 73.0562 507.394 72.8976 507.842 71.7979C508.651 69.8272 508.084 67.4091 506.75 67.146C506.12 67.0173 505.287 65.5305 504.894 63.8279C503.935 59.6721 501.862 58.207 499.692 60.1671C498.401 61.3247 497.845 61.4335 496.816 60.7088C495.783 59.9902 495.74 59.6381 496.583 58.8873C497.787 57.8142 496.674 56.1558 494.953 56.4593C494.315 56.5719 493.725 57.1128 493.643 57.6576C493.473 58.8121 484.519 57.8567 482.089 56.42C481.255 55.9381 479.755 55.912 478.754 56.3684C477.366 57.0049 476.998 56.8806 477.2 55.8351C477.52 54.1904 472.472 53.7774 467.492 55.0339C465.73 55.4858 463.757 55.5673 463.111 55.2282C462.462 54.8896 459.917 54.4484 457.454 54.251C454.989 54.0541 452.548 53.6266 452.03 53.3049C451.512 52.9805 449.963 52.9152 448.585 53.1581C446.458 53.5332 446.275 53.7627 447.375 54.6959C448.086 55.298 449.382 55.6664 450.255 55.5124C451.131 55.3579 452.642 56.0802 453.619 57.1203C455.663 59.2968 459.171 59.7121 468.385 58.8736C471.949 58.5515 475.125 58.5325 475.445 58.8358C476.592 59.9447 481.245 60.6457 484.091 60.144C485.691 59.8619 487.311 59.9839 487.696 60.4143C488.078 60.8452 489.022 60.98 489.787 60.7118C490.705 60.3874 491.399 60.8912 491.823 62.1941C492.852 65.3517 491.567 66.0605 487.099 64.7965C484.653 64.1032 480.704 63.8935 477.342 64.2758C469.41 65.1843 462.278 64.8508 459.962 63.4686C458.708 62.7197 456.016 62.5043 452.569 62.8749C448.957 63.2613 446.706 63.0559 445.837 62.2658C445.067 61.5703 442.732 61.2224 440.175 61.4255C437.777 61.6218 431.466 61.8765 426.14 61.9869C420.819 62.1072 415.409 62.4082 414.118 62.6546C412.533 62.9607 411.693 62.6717 411.533 61.7646C411.346 60.7024 410.718 60.6345 408.603 61.4366C405.282 62.7017 402.858 63.6007 401.765 63.9746C399.476 64.7645 404.487 65.1761 409.978 64.6448" fill="#AF1932"/>
<path fill-rule="evenodd" clip-rule="evenodd" d="M447.387 61.02C448.017 61.1513 448.981 60.9814 449.529 60.6423C450.076 60.298 449.558 60.1894 448.38 60.3972C447.204 60.6046 446.758 60.8831 447.387 61.02" fill="#AF1932"/>
<path fill-rule="evenodd" clip-rule="evenodd" d="M350.969 58.4406C356.322 56.7159 356.353 54.416 351.01 55.3368C348.285 55.8068 347.651 55.6919 348.499 54.8763C349.313 54.0959 348.189 54.0862 344.518 54.8347C341.353 55.4835 338.919 56.475 338.135 57.4419C337.433 58.2984 336.914 59.2801 336.974 59.6238C337.156 60.655 346.555 59.8557 350.969 58.4406" fill="#AF1932"/>
<path fill-rule="evenodd" clip-rule="evenodd" d="M362.014 57.2151C365.723 58.1225 368.268 57.9697 370.381 56.6991C372.61 55.3601 370.53 54.5542 366.618 55.2442C364.524 55.6133 362.746 55.5325 362.662 55.0569C362.579 54.5892 361.545 54.3745 360.369 54.5819C357.268 55.1287 357.946 56.2109 362.014 57.2151" fill="#AF1932"/>
<path fill-rule="evenodd" clip-rule="evenodd" d="M332.457 59.0614C332.039 59.439 331.728 59.9148 331.765 60.1215C331.801 60.3308 332.214 60.4314 332.684 60.3484C333.157 60.2651 333.47 59.7888 333.382 59.29C333.295 58.7938 332.878 58.686 332.457 59.0614" fill="#AF1932"/>
<path fill-rule="evenodd" clip-rule="evenodd" d="M408.776 56.6949C410.495 55.3473 410.807 53.1151 409.112 54.3041C408.571 54.682 407.47 55.3585 406.67 55.8086C405.738 56.3299 405.559 56.8731 406.176 57.3026C406.793 57.7322 407.733 57.5158 408.776 56.6949" fill="#AF1932"/>
<path fill-rule="evenodd" clip-rule="evenodd" d="M372.125 118.744C372.207 119.212 373.046 119.466 373.99 119.3C374.93 119.134 375.634 118.607 375.552 118.14C375.469 117.669 374.628 117.418 373.687 117.584C372.744 117.75 372.042 118.274 372.125 118.744" fill="#AF1932"/>
<path fill-rule="evenodd" clip-rule="evenodd" d="M345.184 118.498C344.507 118.906 344.023 119.638 344.108 120.122C344.301 121.215 345.19 121.074 346.662 119.733C348.05 118.475 346.871 117.487 345.184 118.498" fill="#AF1932"/>
<mask id="mask0_2_764" style="mask-type:luminance" maskUnits="userSpaceOnUse" x="0" y="0" width="516" height="201">
<path fill-rule="evenodd" clip-rule="evenodd" d="M0.393311 87.9797L496.106 0.572217L515.988 113.328L20.2752 200.736L0.393311 87.9797Z" fill="white"/>
</mask>
<g mask="url(#mask0_2_764)">
<path fill-rule="evenodd" clip-rule="evenodd" d="M257.686 133.623C255.869 133.943 254.912 134.471 255.318 134.925C255.693 135.344 257.133 135.489 258.518 135.245C259.904 135.001 260.97 134.413 260.887 133.943C260.804 133.472 259.363 133.327 257.686 133.623" fill="#AF1932"/>
<path fill-rule="evenodd" clip-rule="evenodd" d="M448.011 102.432C447.434 102.79 446.69 102.889 446.356 102.658C446.02 102.418 446.492 102.13 447.4 102.005C448.408 101.875 448.645 102.041 448.011 102.432ZM439.281 103.372C438.811 103.455 438.12 103.177 437.747 102.758C437.372 102.339 437.449 101.926 437.919 101.843C438.392 101.759 439.086 102.037 439.461 102.455C439.833 102.875 439.754 103.288 439.281 103.372ZM403.395 104.397C401.258 104.774 399.888 103.654 401.129 102.548C401.6 102.134 402.714 102.303 403.608 102.929C405.113 103.985 405.095 104.097 403.395 104.397ZM389.337 87.3857C387.021 87.8553 386.307 87.5656 387.435 86.623C387.751 86.3569 388.836 86.3122 389.846 86.5258C391.448 86.8615 391.382 86.9717 389.337 87.3857ZM382.101 88.9227C378.583 89.8708 373.084 89.8918 375.262 88.9481C377.146 88.1309 385.912 86.7772 386.001 87.2837C386.058 87.5934 384.301 88.3296 382.101 88.9227ZM332.809 122.114C330.132 122.604 327.637 122.658 327.262 122.239C326.887 121.82 326.89 121.399 327.265 121.303C327.639 121.205 329.326 120.737 331.005 120.252C332.808 119.734 334.807 119.755 335.871 120.303C337.497 121.133 337.186 121.318 332.809 122.114ZM298.753 116.743C298.063 117.728 291.603 118.979 272.011 121.925C269.88 122.244 267.294 122.205 266.257 121.841C265.221 121.47 261.085 121.679 257.064 122.298C247.406 123.788 245.626 123.942 244.311 123.387C243.704 123.135 242.635 123.27 241.935 123.684C241.1 124.191 240.584 123.981 240.423 123.071C240.29 122.314 239.602 121.798 238.896 121.923C238.191 122.047 237.533 121.715 237.439 121.186C237.321 120.514 238.558 120.184 241.446 120.109C245.468 120.007 253.449 118.629 262.953 116.402C265.822 115.731 268.555 115.651 270.388 116.194C271.982 116.667 276.419 116.679 280.241 116.218C284.067 115.762 287.707 115.669 288.337 116.008C289.49 116.636 292.319 116.633 296.974 115.999C298.806 115.745 299.304 115.956 298.753 116.743ZM216.389 89.336C214.8 90.9939 210.584 92.0171 209.653 90.9688C209.321 90.5957 206.275 90.7356 202.886 91.2826C199.496 91.8243 196.52 92.1254 196.27 91.9483C195.759 91.5906 200.013 89.4923 201.374 89.4308C201.855 89.4073 205.75 89.0428 210.033 88.6208C216.967 87.9418 217.654 88.0177 216.389 89.336ZM154.532 100.472C151.111 101.051 148.253 101.18 148.177 100.748C148.102 100.322 148.927 99.8139 150.01 99.6229C151.092 99.432 152.289 98.8292 152.669 98.2907C153.682 96.8436 168.055 93.2912 168.258 94.4387C168.541 96.0436 160.956 99.377 154.532 100.472ZM145.016 97.8442C144.075 98.7004 144.115 99.1543 145.244 100.418C146.939 102.312 146.027 102.777 135.926 105.139C132.074 106.037 128.899 106.62 128.866 106.432C128.762 105.84 133.799 102.716 137.845 100.862C139.989 99.8765 141.89 98.7019 142.07 98.2545C142.25 97.799 143.242 97.2883 144.277 97.1138C145.796 96.8566 145.936 96.9999 145.016 97.8442ZM209.592 68.8307C210.709 68.655 210.701 68.835 209.547 69.8032C208.775 70.4563 207.953 70.8545 207.716 70.6884C207.004 70.1877 208.143 69.0622 209.592 68.8307ZM213.308 67.2664C214.112 67.1247 214.345 66.2708 213.977 64.806C213.519 62.9789 213.869 62.347 215.858 61.386C219.052 59.8555 220.826 60.2276 220.648 62.4067C220.545 63.6533 221.012 64.1226 222.318 64.084C223.318 64.057 224.353 64.442 224.62 64.9387C225.259 66.1317 222.413 67.401 216.874 68.3909C214.4 68.8378 212.312 68.8143 212.229 68.3413C212.146 67.871 212.628 67.3862 213.308 67.2664ZM239.849 67.2258C241.732 66.9018 242.436 66.9616 241.407 67.3535C240.378 67.7455 238.834 68.0098 237.977 67.9397C237.12 67.8697 237.964 67.5502 239.849 67.2258ZM250.517 66.3841L256.455 66.2512L252.111 67.8193C248.903 68.9737 247.377 69.1576 246.278 68.5333C243.571 66.9908 244.509 66.5108 250.517 66.3841ZM261.294 65.0591C263.632 64.607 266.481 63.3291 268.071 62.0228C271.125 59.5285 273.708 58.7639 274.834 60.0282C275.283 60.5327 276.692 60.4388 278.379 59.8056C281.215 58.7379 282.073 59.2929 280.672 61.2958C280.121 62.0832 280.213 62.5121 281.001 62.8261C281.661 63.0934 282.159 62.5154 282.252 61.3798C282.375 59.8738 283.071 59.378 285.73 58.9091C289.447 58.2538 290.241 59.2835 287.6 61.3374C286.639 62.0799 285.685 63.082 285.478 63.5555C285.273 64.0394 283.595 64.679 281.754 64.9823C279.913 65.2856 274.836 66.1435 270.477 66.8855C266.115 67.6254 262.485 67.8976 262.412 67.4841C262.339 67.0706 261.151 66.5287 259.776 66.2836C257.46 65.8739 257.576 65.7787 261.294 65.0591ZM291.218 58.5385C293.257 57.313 298.456 56.5321 298.615 57.4289C298.688 57.8475 297.455 58.574 295.873 59.0501L295.878 59.0492C294.302 59.5217 292.289 59.7913 291.413 59.6446C289.891 59.3987 289.881 59.3445 291.218 58.5385ZM302.899 62.9116C305.807 61.4502 306.871 61.3211 310.419 62.0066C316.44 63.1621 316.527 64.0768 310.717 65.1012C307.916 65.5952 304.251 65.6844 302.57 65.3067L299.511 64.6123L302.899 62.9116ZM514.992 112.289C514.275 112.17 512.688 111.315 511.463 110.382C510.24 109.457 508.7 108.767 508.044 108.851C507.385 108.94 504.949 108.392 502.63 107.636C500.309 106.878 497.267 106.005 495.869 105.694C494.466 105.385 493.345 104.65 493.372 104.062C493.399 103.476 491.731 101.963 489.662 100.705C485.293 98.0489 485.596 96.0501 490.122 97.6769C492.307 98.4641 493.41 98.443 494.34 97.5994C496.235 95.8903 495.074 95.0504 491.272 95.3743C489.398 95.5368 487.23 95.3009 486.454 94.8569C484.412 93.6874 482.933 93.735 474.846 95.1876C470.856 95.9072 467.143 96.2634 466.596 95.976C466.047 95.6891 463.086 95.8489 460.013 96.3321C456.82 96.8284 452.905 96.8233 450.878 96.3147C447.641 95.5025 447.442 95.2977 448.647 94.0459C450.824 91.7781 448.893 91.6016 444.191 93.6485C437.683 96.4722 430.977 95.8746 430.203 92.3897C430.129 92.0431 433.997 91.1637 438.804 90.4335C444.773 89.5301 447.593 88.7771 447.702 88.0651C447.79 87.4926 447.37 87.1669 446.77 87.3287C443.212 88.3238 433.35 88.1734 432.243 87.1108C431.166 86.0777 430.82 86.112 429.77 87.3497C428.323 89.0572 414.915 92.0396 411.965 91.3127C410.369 90.9225 410.529 90.8011 412.87 90.6415C414.428 90.5345 415.648 90.1223 415.58 89.7372C415.512 89.3495 417.03 87.9253 418.95 86.5716C423.185 83.5863 424.633 81.4738 422.699 81.1006C421.973 80.9594 420.393 81.4299 419.193 82.1504C416.208 83.9266 410.527 84.8351 409.879 83.6383C409.531 82.9961 407.233 83.0203 403.201 83.7126C399.817 84.2906 397.003 84.5176 396.95 84.2178C396.804 83.4361 392.025 83.49 381.95 84.3793C377.129 84.8029 372.572 84.7991 371.825 84.3738C371.078 83.9433 368.286 83.7534 365.628 83.9423C362.971 84.1337 360.929 83.9527 361.096 83.5369C361.662 82.1074 359.158 81.8988 352.304 82.7928C348.525 83.2886 345.089 83.556 344.67 83.3848C344.247 83.2196 338.532 83.7849 331.961 84.6478C317.066 86.6027 313.043 86.6806 312.752 85.0317C312.588 84.1013 313.593 83.575 316.575 83.0332C321.828 82.0722 323.921 79.6274 318.932 80.2727C306.75 81.8531 305.517 82.1425 306.176 83.2361C306.667 84.0555 306.014 84.4504 303.631 84.7933C300.442 85.2516 294.252 85.088 295.947 84.5893C296.436 84.447 297.483 83.6257 298.275 82.7692C299.577 81.3591 298.936 81.3521 291.588 82.6878C287.117 83.5055 282.851 84.1138 282.111 84.0417C276.203 83.4819 273.982 83.7884 273.231 85.2719C272.552 86.6067 271.377 86.8964 264.599 87.3854C260.282 87.7042 254.369 87.9741 251.457 87.9945C248.547 88.0093 242.105 88.6656 237.143 89.4474C228.294 90.845 224.529 90.5736 221.304 88.3151C219.383 86.9723 220.62 86.3278 226.81 85.4469C232.56 84.6327 237.182 82.3549 237.614 80.1203C237.962 78.3321 234.078 79.0943 232.679 81.0916C231.825 82.3189 230.403 82.7188 225.683 83.0768C222.427 83.323 217.841 83.9106 215.5 84.3873C211.776 85.1371 211.399 85.0652 212.531 83.8422C213.244 83.0636 213.792 82.2288 213.749 81.9807C213.705 81.7352 210.439 82.3112 206.487 83.2612C199.689 84.8968 199.197 84.901 197.217 83.2516C195.335 81.6914 195.039 81.6744 194.291 83.0694C193.643 84.2895 192.062 84.832 187.006 85.5689C177.621 86.928 173.727 86.7273 173.876 84.881C173.974 83.6725 173.398 83.5023 170.921 84.0057C169.23 84.3465 167.501 84.9206 167.082 85.2822C166.661 85.6442 165.148 86.4199 163.718 86.9998C160.843 88.165 158.818 87.0777 161.54 85.8278C163.835 84.7729 162.62 83.6254 159.122 83.5439C157.389 83.5058 156.54 83.1199 156.947 82.5578C157.319 82.0366 159.231 81.6515 161.321 81.672C163.667 81.6927 165.306 81.3131 165.776 80.6413C166.3 79.896 167.403 79.7256 169.48 80.0789C172.858 80.6477 187.593 78.2733 196.313 75.7525C202.049 74.0963 205.83 74.0983 207.576 75.765C208.086 76.2534 208.579 76.0252 208.955 75.1381C209.465 73.9184 211.041 73.6671 221.498 73.0944C233.632 72.4365 235.475 72.6017 233.691 74.1928C232.968 74.8398 233.27 75.1304 234.787 75.2572C235.936 75.3504 236.94 75.0295 237.019 74.5386C237.094 74.0457 237.539 73.7994 238.009 73.9883C239.88 74.7297 257.191 71.9703 258.219 70.7578C259.028 69.8023 259.296 69.8378 259.49 70.9362C259.624 71.7012 260.068 72.2678 260.479 72.1953C260.887 72.1233 264.721 72.0576 268.994 72.0529C273.27 72.0425 279.727 71.4448 283.347 70.7265C286.968 70.0134 290.298 69.5676 290.746 69.7364C291.197 69.9073 298.441 69.7332 306.85 69.3484C318.409 68.8158 322.678 68.3188 324.375 67.3162C326.029 66.3316 326.664 66.2463 326.793 66.9777C327.218 69.341 346.763 68.4742 348.485 66.0148C349.209 64.9811 347.176 63.9725 345.099 64.3389C343.866 64.5563 341.608 64.5839 340.087 64.4019C331.086 63.3163 328.704 63.2886 323.248 64.2346C317.81 65.1774 317.161 65.1106 316.65 63.554C315.762 60.846 319.43 58.7203 323.11 59.8114C325.691 60.5767 326.148 60.4909 327.828 58.9129C328.989 57.8208 330.628 57.1854 332.207 57.2215C333.59 57.2547 334.879 56.8888 335.072 56.4098C335.573 55.1569 332.754 54.4763 327.704 54.6285C325.287 54.703 322.954 54.6213 322.52 54.4528C320.89 53.8075 313.703 55.0774 311.871 56.3385C310.3 57.4176 309.768 57.4127 308.885 56.3294C308.124 55.4029 307.215 55.2755 305.804 55.9053C304.582 56.4539 303.736 56.4325 303.633 55.851C303.542 55.3316 302.195 55.1268 300.639 55.4011C299.086 55.675 297.373 55.5905 296.836 55.2163C296.297 54.8395 291.205 55.1406 285.516 55.8826C279.83 56.6292 272.796 57.2648 269.888 57.2951C262.439 57.3749 257.88 58.3147 256.202 60.1188C254.024 62.4586 250.062 62.9281 249.153 60.946C248.406 59.3269 246.406 59.0294 245.837 60.4568C245.675 60.8664 244.442 61.3422 243.101 61.5175C241.759 61.6927 239.207 62.0308 237.429 62.2671C235.264 62.5609 234.122 62.2985 233.978 61.4819C233.807 60.5101 232.749 60.5261 228.913 61.557L224.066 62.8593L225.823 60.8388C227.643 58.7378 226.986 56.6018 224.91 57.8527C224.259 58.2445 223.057 58.182 222.242 57.7155C221.429 57.2567 220.579 57.124 220.364 57.4337C220.147 57.7438 218.691 57.7048 217.129 57.354C215.216 56.9211 213.486 57.0983 211.828 57.9077C210.165 58.7232 209.112 58.8289 208.591 58.244C208.063 57.6522 206.824 57.7907 204.651 58.6934C202.911 59.416 196.96 60.8331 191.432 61.8371C181.523 63.6456 181.371 63.6431 181.032 61.7203C180.631 59.446 178.466 59.4681 177.667 61.754C176.977 63.7357 174.77 62.9284 174.946 60.7575C175.099 58.8732 173.904 58.6976 165.611 59.3924C158.665 59.9723 139.188 63.3107 133.464 64.8982C131.151 65.5459 125.835 66.9523 121.655 68.0304C117.11 69.1996 113.576 70.5741 112.874 71.4414C112.092 72.4053 108.753 73.5511 102.915 74.8549C98.0869 75.93 93.8229 77.2575 93.4333 77.8138C93.0506 78.3636 91.2697 79.0694 89.4813 79.3847C87.158 79.7944 86.2906 80.331 86.4524 81.2485C86.6802 82.5407 85.8628 83.0126 83.0478 83.2185C82.2083 83.2786 81.6067 83.811 81.7111 84.4029C81.8195 85.0179 81.2911 84.8926 80.4761 84.109C79.1165 82.8058 78.7429 82.8637 72.0945 85.403C68.2644 86.8645 64.5443 88.088 63.8238 88.1271C61.9781 88.2234 56.7427 90.359 51.1241 93.3136C48.4944 94.6913 45.3261 96.0068 44.0856 96.2255C42.8451 96.4442 41.4479 97.1649 40.9843 97.8302C40.5156 98.4965 40.0806 98.7197 40.0123 98.3321C39.9444 97.947 39.3309 98.2763 38.6458 99.0607C37.802 100.033 37.5499 100.115 37.8577 99.3062C38.1766 98.4852 37.6484 98.2399 36.121 98.5092C34.8107 98.7403 34.0146 99.379 34.1409 100.095C34.4804 102.02 30.2 103.995 28.018 102.925C25.1993 101.538 23.9118 102.17 24.362 104.724L24.768 107.026L22.6906 105.461C19.9745 103.416 18.3853 103.774 17.1209 106.728C16.5517 108.049 15.212 109.519 14.1427 109.998C11.9197 110.992 11.9072 112.644 14.1082 114.185C14.939 114.771 15.7195 115.827 15.8439 116.533C15.9688 117.241 16.9171 117.935 17.9461 118.073C18.9808 118.213 19.6831 118.523 19.5115 118.775C19.1045 119.353 14.3618 118.132 14.2356 117.416C14.1403 116.876 8.75655 118.14 6.81344 119.164C5.65208 119.772 5.84178 122.057 7.09375 122.553C7.55845 122.74 8.39044 123.907 8.94833 125.151C9.50014 126.392 11.0565 128.433 12.4061 129.679C13.7558 130.926 15.1538 132.824 15.5112 133.899C16.1425 135.802 17.3475 136.531 20.5461 136.929C21.7569 137.085 22.2899 138.068 22.8367 141.169C23.739 146.286 27.8119 155.572 29.8846 157.231C30.7536 157.928 32.5885 158.3 33.9583 158.059C36.8942 157.541 40.0039 158.402 40.2495 159.795C40.3448 160.335 39.7728 161.777 38.9744 162.991L37.5244 165.211L40.1387 168.355C41.5822 170.089 43.3382 171.418 44.0499 171.314C46.2799 170.979 49.0024 172.863 48.684 174.518C48.286 176.568 50.2871 178.139 52.7397 177.706C53.8329 177.514 55.0141 177.684 55.372 178.082C56.0732 178.869 60.7928 177.632 64.6787 175.641C66.0184 174.957 69.2879 173.808 71.9491 173.078C76.8524 171.733 79.6154 169.813 82.6816 165.621C83.618 164.342 84.8103 163.215 85.3323 163.123C85.8591 163.028 87.3344 162.131 88.6154 161.129C90.0434 160.009 93.7353 158.686 98.1675 157.708C102.143 156.828 108.212 155.206 111.661 154.108C115.11 153.009 124.333 150.363 132.153 148.227C145.447 144.598 146.492 144.422 148.239 145.516C149.938 146.586 151.197 146.409 162.442 143.523C169.225 141.778 175.16 139.932 175.623 139.419C177.113 137.77 180.437 136.691 181.741 137.434C182.472 137.849 184.324 137.685 186.133 137.043C187.853 136.434 191.848 135.106 195.007 134.101C198.163 133.092 200.91 132.034 201.11 131.748C201.31 131.463 202.389 132.048 203.506 133.05C205.777 135.08 209.524 134.883 212.203 132.593C213.499 131.48 213.941 131.402 214.405 132.205C214.72 132.754 215.527 133.11 216.193 132.993C216.86 132.875 217.225 132.312 217.002 131.747C216.703 130.968 218.547 130.409 224.334 129.497C231.863 128.314 234.277 128.131 245.244 127.883C259.958 127.559 263.378 127.218 265.329 125.877C266.89 124.797 267.493 124.741 268.246 125.586C269.041 126.48 269.508 126.408 271.094 125.159C272.169 124.319 273.85 123.786 274.972 123.939C276.792 124.178 276.847 124.307 275.681 125.523C274.582 126.668 275.129 126.87 279.629 126.969C282.497 127.036 290.565 126.863 297.56 126.592C304.557 126.317 312.848 126.036 315.995 125.971C319.14 125.899 327.406 125.462 334.369 124.991C341.328 124.518 347.625 124.229 348.354 124.348C349.088 124.461 352.658 124.426 356.287 124.257C359.918 124.097 365.846 123.838 369.463 123.688C373.077 123.541 379.186 123.234 383.028 123.004C389.589 122.612 395.43 122.488 405.907 122.53C408.337 122.544 413.249 122.234 416.822 121.839C425.83 120.858 421.66 120.272 407.317 120.507C401.022 120.607 390.117 120.739 383.082 120.799C371.946 120.889 344.774 121.798 342.812 122.143C342.43 122.211 341.514 121.386 340.776 120.312C339.629 118.644 339.656 118.18 340.97 117.155C341.814 116.486 343.649 115.662 345.042 115.312C346.704 114.899 347.369 114.329 346.968 113.659C346.18 112.348 355.427 111.248 358.58 112.278C360.017 112.749 365.305 112.184 374.548 110.573C382.145 109.244 389.125 108.403 390.058 108.694C390.991 108.985 393.587 109.063 395.827 108.86C401.125 108.394 409.607 108.391 418.512 108.857C422.436 109.065 427.476 109.083 429.714 108.899C431.949 108.715 434.187 108.726 434.689 108.933C435.193 109.129 439.507 109.205 444.279 109.091C454.316 108.862 459.498 108.974 464.545 109.52C468.553 109.959 474.495 110.156 479.271 110.009C480.997 109.956 483.324 110.507 484.44 111.227C485.72 112.065 487.701 112.328 489.8 111.947C494.85 111.041 498.971 111.061 502.997 111.995C508.808 113.352 515.352 113.968 515.842 113.21C516.091 112.822 515.709 112.413 514.992 112.289V112.289Z" fill="#AF1932"/>
</g>
<path fill-rule="evenodd" clip-rule="evenodd" d="M432.658 121.482C431.875 121.167 429.646 120.932 427.708 120.961C425.389 120.989 424.676 121.203 425.61 121.574C426.393 121.889 428.62 122.128 430.56 122.097C432.878 122.067 433.595 121.853 432.658 121.482" fill="#AF1932"/>
<path fill-rule="evenodd" clip-rule="evenodd" d="M489.958 89.6558C486.917 90.6771 486.511 91.0498 487.618 91.8005C488.359 92.2988 490.705 92.5326 492.839 92.3163C495.864 92.0014 496.721 91.6051 496.751 90.4753C496.803 88.4888 494.329 88.1949 489.958 89.6558" fill="#AF1932"/>
<path fill-rule="evenodd" clip-rule="evenodd" d="M462.545 123.698C460.673 123.828 459.942 123.973 460.923 124.024C461.902 124.075 463.136 124.404 463.658 124.754C464.184 125.104 465.592 125.215 466.79 124.983C470.055 124.367 466.848 123.395 462.545 123.698" fill="#AF1932"/>
<path fill-rule="evenodd" clip-rule="evenodd" d="M504.696 102.966C505.033 103.199 505.772 103.098 506.349 102.743C506.986 102.349 506.745 102.178 505.741 102.318C504.832 102.438 504.361 102.729 504.696 102.966" fill="#AF1932"/>
<path fill-rule="evenodd" clip-rule="evenodd" d="M480.091 124.177C476.735 124.348 476.505 124.466 478.079 125.278C479.051 125.773 481.182 125.965 482.81 125.691C486.819 125.022 484.873 123.939 480.091 124.177" fill="#AF1932"/>
<path fill-rule="evenodd" clip-rule="evenodd" d="M489.254 117.52C488.841 117.593 488.637 118.42 488.804 119.364C489.094 121.01 490.888 121.389 491.854 120.011C492.389 119.251 490.376 117.322 489.254 117.52" fill="#AF1932"/>
<path fill-rule="evenodd" clip-rule="evenodd" d="M471.851 116.176C470.701 116.379 469.827 116.922 469.908 117.382C470.075 118.33 474.403 118.846 475.004 117.992C475.774 116.889 473.903 115.814 471.851 116.176" fill="#AF1932"/>
<path fill-rule="evenodd" clip-rule="evenodd" d="M448.283 122.188C446.068 122.166 444.307 122.442 444.371 122.804C444.533 123.724 446.343 123.972 451.268 123.749C456.694 123.506 454.293 122.253 448.283 122.188" fill="#AF1932"/>
<path fill-rule="evenodd" clip-rule="evenodd" d="M442.52 122.31C441.741 122.036 440.19 121.689 439.075 121.558C437.957 121.417 437.108 121.676 437.186 122.12C437.334 122.958 440.375 123.479 442.649 123.046C443.787 122.835 443.772 122.75 442.52 122.31" fill="#AF1932"/>
<path fill-rule="evenodd" clip-rule="evenodd" d="M509.858 98.4179C508.9 99.2743 510.14 101.209 511.861 101.542C513.405 101.848 514.707 100.982 514.499 99.8007C514.306 98.7101 510.721 97.6475 509.858 98.4179" fill="#AF1932"/>
</svg>
